<svg aria-hidden="true" style="position: absolute; width: 0; height: 0; overflow: hidden;" version="1.1" xmlns="http://www.w3.org/2000/svg" xmlns:xlink="http://www.w3.org/1999/xlink">
<defs>
<symbol id="icon-point" viewBox="0 0 19 32">
<path fill="none" stroke="#d41443" style="stroke: var(--color1, #d41443)" stroke-linejoin="round" stroke-linecap="round" stroke-miterlimit="4" stroke-width="6.4" d="M3.2 3.2l12.8 12.8-12.8 12.8"></path>
</symbol>
<symbol id="icon-Burger" viewBox="0 0 46 32">
<path fill="none" stroke="#d41443" style="stroke: var(--color1, #d41443)" stroke-linejoin="miter" stroke-linecap="butt" stroke-miterlimit="4" stroke-width="2.2857" d="M0 2.286h45.714"></path>
<path fill="none" stroke="#d41443" style="stroke: var(--color1, #d41443)" stroke-linejoin="miter" stroke-linecap="butt" stroke-miterlimit="4" stroke-width="2.2857" d="M0 16h45.714"></path>
<path fill="none" stroke="#d41443" style="stroke: var(--color1, #d41443)" stroke-linejoin="miter" stroke-linecap="butt" stroke-miterlimit="4" stroke-width="2.2857" d="M0 29.714h45.714"></path>
</symbol>
<symbol id="icon-close" viewBox="0 0 32 32">
<path fill="none" stroke="#fff" style="stroke: var(--color1, #fff)" stroke-linejoin="miter" stroke-linecap="butt" stroke-miterlimit="4" stroke-width="2" d="M2.519 2l26.963 28"></path>
<path fill="none" stroke="#fff" style="stroke: var(--color1, #fff)" stroke-linejoin="miter" stroke-linecap="butt" stroke-miterlimit="4" stroke-width="2" d="M2 29.481l28-26.963"></path>
</symbol><symbol id="icon-btn-up" viewBox="0 0 32 32">
<path d="M27 0h-22c-2.209 0-4 1.791-4 4v2h30v-2c0-2.209-1.791-4-4-4zM1 28c0 2.209 1.791 4 4 4h22c2.209 0 4-1.791 4-4v-20h-30v20zM10.282 17.294l4.942-5.98c0.209-0.21 0.487-0.299 0.76-0.285 0.274-0.014 0.551 0.075 0.76 0.285l4.942 5.98c0.392 0.393 0.392 1.031 0 1.424s-1.028 0.393-1.42 0l-3.266-3.953v12.235c0 0.552-0.448 1-1 1s-1-0.448-1-1v-12.273l-3.299 3.991c-0.392 0.393-1.028 0.393-1.42 0-0.391-0.394-0.391-1.031 0.001-1.424z"></path>
</symbol>


<symbol id="icon-vector" viewBox="0 0 26 32">
<path fill="none" stroke="#d41443" stroke-width="6.4" stroke-miterlimit="4" stroke-linecap="round"
        stroke-linejoin="round" style="stroke: var(--color1, #d41443)" d="M5.171 3.2l14.17 12.8-14.17 12.8"></path>
</symbol>

</defs>
</svg>
